<svg width="240" height="80" viewBox="0 0 240 80" fill="none" xmlns="http://www.w3.org/2000/svg">
<rect width="240" height="80" rx="18" fill="#E5C8C8"/>
<mask id="path-2-outside-1_2_37" maskUnits="userSpaceOnUse" x="44" y="26" width="153" height="33" fill="black">
<rect fill="white" x="44" y="26" width="153" height="33"/>
<path d="M63.2159 27.7273V51H61.1477L47.3977 31.5114H47.2159V51H45.0909V27.7273H47.1477L60.9432 47.2386H61.125V27.7273H63.2159ZM76.0398 51.3636C74.411 51.3636 73.0019 50.9848 71.8125 50.2273C70.6231 49.4621 69.7027 48.4053 69.0511 47.0568C68.4072 45.7008 68.0852 44.1402 68.0852 42.375C68.0852 40.6174 68.4072 39.0568 69.0511 37.6932C69.7027 36.322 70.6004 35.25 71.7443 34.4773C72.8958 33.697 74.2254 33.3068 75.733 33.3068C76.6799 33.3068 77.5928 33.4811 78.4716 33.8295C79.3504 34.1705 80.1383 34.697 80.8352 35.4091C81.5398 36.1136 82.0966 37.0038 82.5057 38.0795C82.9148 39.1477 83.1193 40.4129 83.1193 41.875V42.875H69.483V41.0909H81.0511C81.0511 39.9697 80.8239 38.9621 80.3693 38.0682C79.9223 37.1667 79.2973 36.4545 78.4943 35.9318C77.6989 35.4091 76.7784 35.1477 75.733 35.1477C74.6269 35.1477 73.6534 35.4432 72.8125 36.0341C71.9716 36.625 71.3125 37.4053 70.8352 38.375C70.3655 39.3447 70.1269 40.4053 70.1193 41.5568V42.625C70.1193 44.0114 70.358 45.2235 70.8352 46.2614C71.3201 47.2917 72.0057 48.0909 72.892 48.6591C73.7784 49.2273 74.8277 49.5114 76.0398 49.5114C76.8655 49.5114 77.589 49.3826 78.2102 49.125C78.839 48.8674 79.3655 48.5227 79.7898 48.0909C80.2216 47.6515 80.5473 47.1705 80.767 46.6477L82.6875 47.2727C82.4223 48.0076 81.9867 48.6856 81.3807 49.3068C80.7822 49.928 80.0322 50.428 79.1307 50.8068C78.2367 51.178 77.2064 51.3636 76.0398 51.3636ZM88.358 33.5455L92.858 40.9886L97.358 33.5455H99.7102L94.0966 42.2727L99.7102 51H97.358L92.858 43.7955L88.358 51H86.017L91.5625 42.2727L86.017 33.5455H88.358ZM110.827 33.5455V35.3068H102.497V33.5455H110.827ZM105.099 29.3636H107.134V46.4432C107.134 47.1705 107.259 47.7424 107.509 48.1591C107.759 48.5682 108.084 48.8598 108.486 49.0341C108.887 49.2008 109.315 49.2841 109.77 49.2841C110.035 49.2841 110.262 49.2689 110.452 49.2386C110.641 49.2008 110.808 49.1629 110.952 49.125L111.384 50.9545C111.187 51.0303 110.944 51.0985 110.656 51.1591C110.368 51.2273 110.012 51.2614 109.588 51.2614C108.846 51.2614 108.13 51.0985 107.44 50.7727C106.759 50.447 106.198 49.9621 105.759 49.3182C105.319 48.6742 105.099 47.875 105.099 46.9205V29.3636ZM124.841 51V27.7273H132.352C134.004 27.7273 135.383 28.0455 136.489 28.6818C137.602 29.3106 138.439 30.1667 139 31.25C139.568 32.3333 139.852 33.553 139.852 34.9091C139.852 36.2652 139.572 37.4886 139.011 38.5795C138.451 39.6629 137.617 40.5227 136.511 41.1591C135.405 41.7879 134.03 42.1023 132.386 42.1023H126.477V40.1932H132.33C133.549 40.1932 134.561 39.9659 135.364 39.5114C136.167 39.0492 136.765 38.4205 137.159 37.625C137.561 36.8295 137.761 35.9242 137.761 34.9091C137.761 33.8939 137.561 32.9886 137.159 32.1932C136.765 31.3977 136.163 30.7727 135.352 30.3182C134.549 29.8636 133.53 29.6364 132.295 29.6364H126.966V51H124.841ZM149.295 51.3977C148.242 51.3977 147.28 51.1932 146.409 50.7841C145.538 50.3674 144.845 49.7689 144.33 48.9886C143.814 48.2008 143.557 47.2462 143.557 46.125C143.557 45.2614 143.72 44.5341 144.045 43.9432C144.371 43.3523 144.833 42.8674 145.432 42.4886C146.03 42.1098 146.739 41.8106 147.557 41.5909C148.375 41.3712 149.277 41.2008 150.261 41.0795C151.239 40.9583 152.064 40.8523 152.739 40.7614C153.42 40.6705 153.939 40.5265 154.295 40.3295C154.652 40.1326 154.83 39.8144 154.83 39.375V38.9659C154.83 37.7765 154.473 36.8409 153.761 36.1591C153.057 35.4697 152.042 35.125 150.716 35.125C149.458 35.125 148.432 35.4015 147.636 35.9545C146.848 36.5076 146.295 37.1591 145.977 37.9091L144.057 37.2159C144.451 36.2614 144.996 35.5 145.693 34.9318C146.39 34.3561 147.17 33.9432 148.034 33.6932C148.898 33.4356 149.773 33.3068 150.659 33.3068C151.326 33.3068 152.019 33.3939 152.739 33.5682C153.466 33.7424 154.14 34.0455 154.761 34.4773C155.383 34.9015 155.886 35.4962 156.273 36.2614C156.659 37.0189 156.852 37.9811 156.852 39.1477V51H154.83V48.2386H154.705C154.462 48.7538 154.102 49.2538 153.625 49.7386C153.148 50.2235 152.549 50.6212 151.83 50.9318C151.11 51.2424 150.265 51.3977 149.295 51.3977ZM149.568 49.5455C150.644 49.5455 151.576 49.3068 152.364 48.8295C153.152 48.3523 153.758 47.7197 154.182 46.9318C154.614 46.1364 154.83 45.2614 154.83 44.3068V41.7841C154.678 41.928 154.424 42.0568 154.068 42.1705C153.72 42.2841 153.314 42.3864 152.852 42.4773C152.398 42.5606 151.943 42.6326 151.489 42.6932C151.034 42.7538 150.625 42.8068 150.261 42.8523C149.277 42.9735 148.436 43.1629 147.739 43.4205C147.042 43.678 146.508 44.0341 146.136 44.4886C145.765 44.9356 145.58 45.5114 145.58 46.2159C145.58 47.2765 145.958 48.0985 146.716 48.6818C147.473 49.2576 148.424 49.5455 149.568 49.5455ZM168.892 57.9091C167.703 57.9091 166.661 57.7538 165.767 57.4432C164.873 57.1402 164.119 56.7235 163.506 56.1932C162.892 55.6629 162.415 55.0682 162.074 54.4091L163.733 53.3182C163.983 53.7576 164.316 54.1894 164.733 54.6136C165.157 55.0379 165.706 55.3902 166.381 55.6705C167.063 55.9508 167.9 56.0909 168.892 56.0909C170.438 56.0909 171.684 55.7045 172.631 54.9318C173.585 54.1591 174.062 52.9583 174.062 51.3295V47.3977H173.881C173.646 47.928 173.309 48.4583 172.869 48.9886C172.43 49.5114 171.854 49.947 171.142 50.2955C170.438 50.6439 169.563 50.8182 168.517 50.8182C167.123 50.8182 165.884 50.4735 164.801 49.7841C163.725 49.0947 162.877 48.1098 162.256 46.8295C161.642 45.5417 161.335 44.0076 161.335 42.2273C161.335 40.4621 161.634 38.9091 162.233 37.5682C162.839 36.2273 163.684 35.1818 164.767 34.4318C165.85 33.6818 167.112 33.3068 168.551 33.3068C169.619 33.3068 170.506 33.4962 171.21 33.875C171.915 34.2462 172.479 34.7083 172.903 35.2614C173.335 35.8144 173.672 36.3523 173.915 36.875H174.119V33.5455H176.097V51.4545C176.097 52.9318 175.782 54.1477 175.153 55.1023C174.525 56.0568 173.669 56.7614 172.585 57.2159C171.502 57.678 170.271 57.9091 168.892 57.9091ZM168.756 48.9659C169.877 48.9659 170.835 48.697 171.631 48.1591C172.426 47.6136 173.036 46.8333 173.46 45.8182C173.884 44.803 174.097 43.5947 174.097 42.1932C174.097 40.8295 173.888 39.6212 173.472 38.5682C173.055 37.5076 172.449 36.6742 171.653 36.0682C170.866 35.4545 169.9 35.1477 168.756 35.1477C167.589 35.1477 166.604 35.4621 165.801 36.0909C164.998 36.7197 164.392 37.5682 163.983 38.6364C163.574 39.697 163.369 40.8826 163.369 42.1932C163.369 43.5265 163.578 44.7045 163.994 45.7273C164.411 46.7424 165.021 47.5379 165.824 48.1136C166.627 48.6818 167.604 48.9659 168.756 48.9659ZM188.509 51.3636C186.88 51.3636 185.471 50.9848 184.281 50.2273C183.092 49.4621 182.171 48.4053 181.52 47.0568C180.876 45.7008 180.554 44.1402 180.554 42.375C180.554 40.6174 180.876 39.0568 181.52 37.6932C182.171 36.322 183.069 35.25 184.213 34.4773C185.365 33.697 186.694 33.3068 188.202 33.3068C189.149 33.3068 190.062 33.4811 190.94 33.8295C191.819 34.1705 192.607 34.697 193.304 35.4091C194.009 36.1136 194.565 37.0038 194.974 38.0795C195.384 39.1477 195.588 40.4129 195.588 41.875V42.875H181.952V41.0909H193.52C193.52 39.9697 193.293 38.9621 192.838 38.0682C192.391 37.1667 191.766 36.4545 190.963 35.9318C190.168 35.4091 189.247 35.1477 188.202 35.1477C187.096 35.1477 186.122 35.4432 185.281 36.0341C184.44 36.625 183.781 37.4053 183.304 38.375C182.834 39.3447 182.596 40.4053 182.588 41.5568V42.625C182.588 44.0114 182.827 45.2235 183.304 46.2614C183.789 47.2917 184.474 48.0909 185.361 48.6591C186.247 49.2273 187.296 49.5114 188.509 49.5114C189.334 49.5114 190.058 49.3826 190.679 49.125C191.308 48.8674 191.834 48.5227 192.259 48.0909C192.69 47.6515 193.016 47.1705 193.236 46.6477L195.156 47.2727C194.891 48.0076 194.455 48.6856 193.849 49.3068C193.251 49.928 192.501 50.428 191.599 50.8068C190.705 51.178 189.675 51.3636 188.509 51.3636Z"/>
</mask>
<path d="M63.2159 27.7273V51H61.1477L47.3977 31.5114H47.2159V51H45.0909V27.7273H47.1477L60.9432 47.2386H61.125V27.7273H63.2159ZM76.0398 51.3636C74.411 51.3636 73.0019 50.9848 71.8125 50.2273C70.6231 49.4621 69.7027 48.4053 69.0511 47.0568C68.4072 45.7008 68.0852 44.1402 68.0852 42.375C68.0852 40.6174 68.4072 39.0568 69.0511 37.6932C69.7027 36.322 70.6004 35.25 71.7443 34.4773C72.8958 33.697 74.2254 33.3068 75.733 33.3068C76.6799 33.3068 77.5928 33.4811 78.4716 33.8295C79.3504 34.1705 80.1383 34.697 80.8352 35.4091C81.5398 36.1136 82.0966 37.0038 82.5057 38.0795C82.9148 39.1477 83.1193 40.4129 83.1193 41.875V42.875H69.483V41.0909H81.0511C81.0511 39.9697 80.8239 38.9621 80.3693 38.0682C79.9223 37.1667 79.2973 36.4545 78.4943 35.9318C77.6989 35.4091 76.7784 35.1477 75.733 35.1477C74.6269 35.1477 73.6534 35.4432 72.8125 36.0341C71.9716 36.625 71.3125 37.4053 70.8352 38.375C70.3655 39.3447 70.1269 40.4053 70.1193 41.5568V42.625C70.1193 44.0114 70.358 45.2235 70.8352 46.2614C71.3201 47.2917 72.0057 48.0909 72.892 48.6591C73.7784 49.2273 74.8277 49.5114 76.0398 49.5114C76.8655 49.5114 77.589 49.3826 78.2102 49.125C78.839 48.8674 79.3655 48.5227 79.7898 48.0909C80.2216 47.6515 80.5473 47.1705 80.767 46.6477L82.6875 47.2727C82.4223 48.0076 81.9867 48.6856 81.3807 49.3068C80.7822 49.928 80.0322 50.428 79.1307 50.8068C78.2367 51.178 77.2064 51.3636 76.0398 51.3636ZM88.358 33.5455L92.858 40.9886L97.358 33.5455H99.7102L94.0966 42.2727L99.7102 51H97.358L92.858 43.7955L88.358 51H86.017L91.5625 42.2727L86.017 33.5455H88.358ZM110.827 33.5455V35.3068H102.497V33.5455H110.827ZM105.099 29.3636H107.134V46.4432C107.134 47.1705 107.259 47.7424 107.509 48.1591C107.759 48.5682 108.084 48.8598 108.486 49.0341C108.887 49.2008 109.315 49.2841 109.77 49.2841C110.035 49.2841 110.262 49.2689 110.452 49.2386C110.641 49.2008 110.808 49.1629 110.952 49.125L111.384 50.9545C111.187 51.0303 110.944 51.0985 110.656 51.1591C110.368 51.2273 110.012 51.2614 109.588 51.2614C108.846 51.2614 108.13 51.0985 107.44 50.7727C106.759 50.447 106.198 49.9621 105.759 49.3182C105.319 48.6742 105.099 47.875 105.099 46.9205V29.3636ZM124.841 51V27.7273H132.352C134.004 27.7273 135.383 28.0455 136.489 28.6818C137.602 29.3106 138.439 30.1667 139 31.25C139.568 32.3333 139.852 33.553 139.852 34.9091C139.852 36.2652 139.572 37.4886 139.011 38.5795C138.451 39.6629 137.617 40.5227 136.511 41.1591C135.405 41.7879 134.03 42.1023 132.386 42.1023H126.477V40.1932H132.33C133.549 40.1932 134.561 39.9659 135.364 39.5114C136.167 39.0492 136.765 38.4205 137.159 37.625C137.561 36.8295 137.761 35.9242 137.761 34.9091C137.761 33.8939 137.561 32.9886 137.159 32.1932C136.765 31.3977 136.163 30.7727 135.352 30.3182C134.549 29.8636 133.53 29.6364 132.295 29.6364H126.966V51H124.841ZM149.295 51.3977C148.242 51.3977 147.28 51.1932 146.409 50.7841C145.538 50.3674 144.845 49.7689 144.33 48.9886C143.814 48.2008 143.557 47.2462 143.557 46.125C143.557 45.2614 143.72 44.5341 144.045 43.9432C144.371 43.3523 144.833 42.8674 145.432 42.4886C146.03 42.1098 146.739 41.8106 147.557 41.5909C148.375 41.3712 149.277 41.2008 150.261 41.0795C151.239 40.9583 152.064 40.8523 152.739 40.7614C153.42 40.6705 153.939 40.5265 154.295 40.3295C154.652 40.1326 154.83 39.8144 154.83 39.375V38.9659C154.83 37.7765 154.473 36.8409 153.761 36.1591C153.057 35.4697 152.042 35.125 150.716 35.125C149.458 35.125 148.432 35.4015 147.636 35.9545C146.848 36.5076 146.295 37.1591 145.977 37.9091L144.057 37.2159C144.451 36.2614 144.996 35.5 145.693 34.9318C146.39 34.3561 147.17 33.9432 148.034 33.6932C148.898 33.4356 149.773 33.3068 150.659 33.3068C151.326 33.3068 152.019 33.3939 152.739 33.5682C153.466 33.7424 154.14 34.0455 154.761 34.4773C155.383 34.9015 155.886 35.4962 156.273 36.2614C156.659 37.0189 156.852 37.9811 156.852 39.1477V51H154.83V48.2386H154.705C154.462 48.7538 154.102 49.2538 153.625 49.7386C153.148 50.2235 152.549 50.6212 151.83 50.9318C151.11 51.2424 150.265 51.3977 149.295 51.3977ZM149.568 49.5455C150.644 49.5455 151.576 49.3068 152.364 48.8295C153.152 48.3523 153.758 47.7197 154.182 46.9318C154.614 46.1364 154.83 45.2614 154.83 44.3068V41.7841C154.678 41.928 154.424 42.0568 154.068 42.1705C153.72 42.2841 153.314 42.3864 152.852 42.4773C152.398 42.5606 151.943 42.6326 151.489 42.6932C151.034 42.7538 150.625 42.8068 150.261 42.8523C149.277 42.9735 148.436 43.1629 147.739 43.4205C147.042 43.678 146.508 44.0341 146.136 44.4886C145.765 44.9356 145.58 45.5114 145.58 46.2159C145.58 47.2765 145.958 48.0985 146.716 48.6818C147.473 49.2576 148.424 49.5455 149.568 49.5455ZM168.892 57.9091C167.703 57.9091 166.661 57.7538 165.767 57.4432C164.873 57.1402 164.119 56.7235 163.506 56.1932C162.892 55.6629 162.415 55.0682 162.074 54.4091L163.733 53.3182C163.983 53.7576 164.316 54.1894 164.733 54.6136C165.157 55.0379 165.706 55.3902 166.381 55.6705C167.063 55.9508 167.9 56.0909 168.892 56.0909C170.438 56.0909 171.684 55.7045 172.631 54.9318C173.585 54.1591 174.062 52.9583 174.062 51.3295V47.3977H173.881C173.646 47.928 173.309 48.4583 172.869 48.9886C172.43 49.5114 171.854 49.947 171.142 50.2955C170.438 50.6439 169.563 50.8182 168.517 50.8182C167.123 50.8182 165.884 50.4735 164.801 49.7841C163.725 49.0947 162.877 48.1098 162.256 46.8295C161.642 45.5417 161.335 44.0076 161.335 42.2273C161.335 40.4621 161.634 38.9091 162.233 37.5682C162.839 36.2273 163.684 35.1818 164.767 34.4318C165.85 33.6818 167.112 33.3068 168.551 33.3068C169.619 33.3068 170.506 33.4962 171.21 33.875C171.915 34.2462 172.479 34.7083 172.903 35.2614C173.335 35.8144 173.672 36.3523 173.915 36.875H174.119V33.5455H176.097V51.4545C176.097 52.9318 175.782 54.1477 175.153 55.1023C174.525 56.0568 173.669 56.7614 172.585 57.2159C171.502 57.678 170.271 57.9091 168.892 57.9091ZM168.756 48.9659C169.877 48.9659 170.835 48.697 171.631 48.1591C172.426 47.6136 173.036 46.8333 173.46 45.8182C173.884 44.803 174.097 43.5947 174.097 42.1932C174.097 40.8295 173.888 39.6212 173.472 38.5682C173.055 37.5076 172.449 36.6742 171.653 36.0682C170.866 35.4545 169.9 35.1477 168.756 35.1477C167.589 35.1477 166.604 35.4621 165.801 36.0909C164.998 36.7197 164.392 37.5682 163.983 38.6364C163.574 39.697 163.369 40.8826 163.369 42.1932C163.369 43.5265 163.578 44.7045 163.994 45.7273C164.411 46.7424 165.021 47.5379 165.824 48.1136C166.627 48.6818 167.604 48.9659 168.756 48.9659ZM188.509 51.3636C186.88 51.3636 185.471 50.9848 184.281 50.2273C183.092 49.4621 182.171 48.4053 181.52 47.0568C180.876 45.7008 180.554 44.1402 180.554 42.375C180.554 40.6174 180.876 39.0568 181.52 37.6932C182.171 36.322 183.069 35.25 184.213 34.4773C185.365 33.697 186.694 33.3068 188.202 33.3068C189.149 33.3068 190.062 33.4811 190.94 33.8295C191.819 34.1705 192.607 34.697 193.304 35.4091C194.009 36.1136 194.565 37.0038 194.974 38.0795C195.384 39.1477 195.588 40.4129 195.588 41.875V42.875H181.952V41.0909H193.52C193.52 39.9697 193.293 38.9621 192.838 38.0682C192.391 37.1667 191.766 36.4545 190.963 35.9318C190.168 35.4091 189.247 35.1477 188.202 35.1477C187.096 35.1477 186.122 35.4432 185.281 36.0341C184.44 36.625 183.781 37.4053 183.304 38.375C182.834 39.3447 182.596 40.4053 182.588 41.5568V42.625C182.588 44.0114 182.827 45.2235 183.304 46.2614C183.789 47.2917 184.474 48.0909 185.361 48.6591C186.247 49.2273 187.296 49.5114 188.509 49.5114C189.334 49.5114 190.058 49.3826 190.679 49.125C191.308 48.8674 191.834 48.5227 192.259 48.0909C192.69 47.6515 193.016 47.1705 193.236 46.6477L195.156 47.2727C194.891 48.0076 194.455 48.6856 193.849 49.3068C193.251 49.928 192.501 50.428 191.599 50.8068C190.705 51.178 189.675 51.3636 188.509 51.3636Z" fill="#3D363E"/>
<path d="M63.2159 27.7273H64.2159V26.7273H63.2159V27.7273ZM63.2159 51V52H64.2159V51H63.2159ZM61.1477 51L60.3306 51.5765L60.6294 52H61.1477V51ZM47.3977 31.5114L48.2148 30.9349L47.916 30.5114H47.3977V31.5114ZM47.2159 31.5114V30.5114H46.2159V31.5114H47.2159ZM47.2159 51V52H48.2159V51H47.2159ZM45.0909 51H44.0909V52H45.0909V51ZM45.0909 27.7273V26.7273H44.0909V27.7273H45.0909ZM47.1477 27.7273L47.9642 27.15L47.6654 26.7273H47.1477V27.7273ZM60.9432 47.2386L60.1267 47.816L60.4255 48.2386H60.9432V47.2386ZM61.125 47.2386V48.2386H62.125V47.2386H61.125ZM61.125 27.7273V26.7273H60.125V27.7273H61.125ZM62.2159 27.7273V51H64.2159V27.7273H62.2159ZM63.2159 50H61.1477V52H63.2159V50ZM61.9648 50.4235L48.2148 30.9349L46.5806 32.0879L60.3306 51.5765L61.9648 50.4235ZM47.3977 30.5114H47.2159V32.5114H47.3977V30.5114ZM46.2159 31.5114V51H48.2159V31.5114H46.2159ZM47.2159 50H45.0909V52H47.2159V50ZM46.0909 51V27.7273H44.0909V51H46.0909ZM45.0909 28.7273H47.1477V26.7273H45.0909V28.7273ZM46.3312 28.3046L60.1267 47.816L61.7597 46.6613L47.9642 27.15L46.3312 28.3046ZM60.9432 48.2386H61.125V46.2386H60.9432V48.2386ZM62.125 47.2386V27.7273H60.125V47.2386H62.125ZM61.125 28.7273H63.2159V26.7273H61.125V28.7273ZM71.8125 50.2273L71.2715 51.0683L71.2753 51.0707L71.8125 50.2273ZM69.0511 47.0568L68.1478 47.4858L68.1507 47.4918L69.0511 47.0568ZM69.0511 37.6932L68.1479 37.264L68.1469 37.2662L69.0511 37.6932ZM71.7443 34.4773L72.3041 35.3059L72.3053 35.3051L71.7443 34.4773ZM78.4716 33.8295L78.103 34.7591L78.1099 34.7619L78.4716 33.8295ZM80.8352 35.4091L80.1205 36.1086L80.1281 36.1162L80.8352 35.4091ZM82.5057 38.0795L81.571 38.435L81.5718 38.4372L82.5057 38.0795ZM83.1193 42.875V43.875H84.1193V42.875H83.1193ZM69.483 42.875H68.483V43.875H69.483V42.875ZM69.483 41.0909V40.0909H68.483V41.0909H69.483ZM81.0511 41.0909V42.0909H82.0511V41.0909H81.0511ZM80.3693 38.0682L79.4733 38.5124L79.4779 38.5214L80.3693 38.0682ZM78.4943 35.9318L77.9451 36.7675L77.9488 36.7699L78.4943 35.9318ZM72.8125 36.0341L72.2376 35.2159L72.2376 35.2159L72.8125 36.0341ZM70.8352 38.375L69.938 37.9334L69.9352 37.9391L70.8352 38.375ZM70.1193 41.5568L69.1193 41.5502V41.5568H70.1193ZM70.8352 46.2614L69.9267 46.6792L69.9304 46.6872L70.8352 46.2614ZM72.892 48.6591L73.4317 47.8172L73.4317 47.8172L72.892 48.6591ZM78.2102 49.125L77.8312 48.1996L77.8272 48.2013L78.2102 49.125ZM79.7898 48.0909L79.0765 47.39L79.0764 47.3901L79.7898 48.0909ZM80.767 46.6477L81.0765 45.6968L80.2016 45.4121L79.8452 46.2603L80.767 46.6477ZM82.6875 47.2727L83.6281 47.6121L83.9785 46.6412L82.997 46.3218L82.6875 47.2727ZM81.3807 49.3068L80.6649 48.6085L80.6605 48.613L81.3807 49.3068ZM79.1307 50.8068L79.5142 51.7304L79.518 51.7287L79.1307 50.8068ZM76.0398 50.3636C74.5712 50.3636 73.3549 50.0241 72.3497 49.3838L71.2753 51.0707C72.6489 51.9456 74.2508 52.3636 76.0398 52.3636V50.3636ZM72.3535 49.3863C71.3283 48.7267 70.5279 47.8146 69.9516 46.6218L68.1507 47.4918C68.8774 48.996 69.9179 50.1975 71.2715 51.0683L72.3535 49.3863ZM69.9545 46.6279C69.3844 45.4274 69.0852 44.0177 69.0852 42.375H67.0852C67.0852 44.2626 67.43 45.9741 68.1478 47.4858L69.9545 46.6279ZM69.0852 42.375C69.0852 40.7408 69.3841 39.3299 69.9554 38.1202L68.1469 37.2662C67.4303 38.7837 67.0852 40.4941 67.0852 42.375H69.0852ZM69.9544 38.1223C70.537 36.896 71.3228 35.9688 72.3041 35.3059L71.1846 33.6486C69.878 34.5312 68.8683 35.7479 68.1479 37.264L69.9544 38.1223ZM72.3053 35.3051C73.2773 34.6465 74.4078 34.3068 75.733 34.3068V32.3068C74.0429 32.3068 72.5144 32.7475 71.1834 33.6494L72.3053 35.3051ZM75.733 34.3068C76.5539 34.3068 77.3417 34.4572 78.103 34.7591L78.8402 32.9C77.8439 32.5049 76.8059 32.3068 75.733 32.3068V34.3068ZM78.1099 34.7619C78.8483 35.0483 79.5175 35.4924 80.1206 36.1086L81.5499 34.7096C80.759 33.9016 79.8525 33.2926 78.8333 32.8972L78.1099 34.7619ZM80.1281 36.1162C80.7185 36.7066 81.2043 37.4709 81.571 38.435L83.4404 37.7241C82.9888 36.5367 82.361 35.5207 81.5423 34.702L80.1281 36.1162ZM81.5718 38.4372C81.9269 39.3644 82.1193 40.5026 82.1193 41.875H84.1193C84.1193 40.3231 83.9026 38.9311 83.4395 37.7219L81.5718 38.4372ZM82.1193 41.875V42.875H84.1193V41.875H82.1193ZM83.1193 41.875H69.483V43.875H83.1193V41.875ZM70.483 42.875V41.0909H68.483V42.875H70.483ZM69.483 42.0909H81.0511V40.0909H69.483V42.0909ZM82.0511 41.0909C82.0511 39.831 81.7947 38.6652 81.2607 37.6149L79.4779 38.5214C79.853 39.2591 80.0511 40.1084 80.0511 41.0909H82.0511ZM81.2652 37.624C80.743 36.5706 80.0005 35.719 79.0399 35.0937L77.9488 36.7699C78.5942 37.1901 79.1017 37.7628 79.4734 38.5124L81.2652 37.624ZM79.0435 35.0961C78.069 34.4557 76.9536 34.1477 75.733 34.1477V36.1477C76.6032 36.1477 77.3287 36.3624 77.9451 36.7675L79.0435 35.0961ZM75.733 34.1477C74.4376 34.1477 73.2599 34.4975 72.2376 35.2159L73.3874 36.8523C74.0469 36.3888 74.8162 36.1477 75.733 36.1477V34.1477ZM72.2376 35.2159C71.2522 35.9083 70.4854 36.8212 69.938 37.9334L71.7324 38.8166C72.1396 37.9894 72.691 37.3417 73.3874 36.8523L72.2376 35.2159ZM69.9352 37.9391C69.3963 39.0517 69.1278 40.2604 69.1193 41.5502L71.1193 41.5634C71.126 40.5502 71.3348 39.6376 71.7352 38.8109L69.9352 37.9391ZM69.1193 41.5568V42.625H71.1193V41.5568H69.1193ZM69.1193 42.625C69.1193 44.1254 69.3777 45.4853 69.9267 46.6792L71.7438 45.8436C71.3382 44.9617 71.1193 43.8973 71.1193 42.625H69.1193ZM69.9304 46.6872C70.4886 47.8733 71.2946 48.8229 72.3524 49.501L73.4317 47.8172C72.7167 47.3589 72.1516 46.71 71.74 45.8356L69.9304 46.6872ZM72.3524 49.501C73.4231 50.1873 74.666 50.5114 76.0398 50.5114V48.5114C74.9893 48.5114 74.1338 48.2672 73.4317 47.8172L72.3524 49.501ZM76.0398 50.5114C76.9679 50.5114 77.8263 50.3667 78.5932 50.0487L77.8272 48.2013C77.3517 48.3984 76.7632 48.5114 76.0398 48.5114V50.5114ZM78.5893 50.0504C79.3282 49.7477 79.9728 49.3315 80.5031 48.7917L79.0764 47.3901C78.7582 47.714 78.3498 47.9872 77.8312 48.1996L78.5893 50.0504ZM80.503 48.7918C81.0159 48.27 81.4161 47.6844 81.6889 47.0352L79.8452 46.2603C79.6786 46.6565 79.4273 47.0331 79.0765 47.39L80.503 48.7918ZM80.4576 47.5986L82.378 48.2236L82.997 46.3218L81.0765 45.6968L80.4576 47.5986ZM81.7469 46.9333C81.5353 47.5196 81.1824 48.0781 80.6649 48.6085L82.0965 50.0051C82.7911 49.2931 83.3094 48.4955 83.6281 47.6121L81.7469 46.9333ZM80.6605 48.613C80.1681 49.1241 79.5362 49.5517 78.7433 49.8849L79.518 51.7287C80.5281 51.3043 81.3963 50.7319 82.1008 50.0006L80.6605 48.613ZM78.7472 49.8833C77.997 50.1948 77.1012 50.3636 76.0398 50.3636V52.3636C77.3117 52.3636 78.4765 52.1613 79.5142 51.7304L78.7472 49.8833ZM88.358 33.5455L89.2137 33.0281L88.9219 32.5455H88.358V33.5455ZM92.858 40.9886L92.0022 41.506L92.858 42.9215L93.7137 41.506L92.858 40.9886ZM97.358 33.5455V32.5455H96.794L96.5022 33.0281L97.358 33.5455ZM99.7102 33.5455L100.551 34.0864L101.542 32.5455H99.7102V33.5455ZM94.0966 42.2727L93.2556 41.7317L92.9076 42.2727L93.2556 42.8137L94.0966 42.2727ZM99.7102 51V52H101.542L100.551 50.459L99.7102 51ZM97.358 51L96.5098 51.5298L96.8035 52H97.358V51ZM92.858 43.7955L93.7061 43.2657L92.858 41.9078L92.0098 43.2657L92.858 43.7955ZM88.358 51V52H88.9124L89.2061 51.5298L88.358 51ZM86.017 51L85.173 50.4637L84.1968 52H86.017V51ZM91.5625 42.2727L92.4065 42.809L92.7473 42.2727L92.4065 41.7364L91.5625 42.2727ZM86.017 33.5455V32.5455H84.1968L85.173 34.0818L86.017 33.5455ZM87.5022 34.0628L92.0022 41.506L93.7137 40.4713L89.2137 33.0281L87.5022 34.0628ZM93.7137 41.506L98.2137 34.0628L96.5022 33.0281L92.0022 40.4713L93.7137 41.506ZM97.358 34.5455H99.7102V32.5455H97.358V34.5455ZM98.8692 33.0045L93.2556 41.7317L94.9376 42.8137L100.551 34.0864L98.8692 33.0045ZM93.2556 42.8137L98.8692 51.541L100.551 50.459L94.9376 41.7317L93.2556 42.8137ZM99.7102 50H97.358V52H99.7102V50ZM98.2061 50.4702L93.7061 43.2657L92.0098 44.3252L96.5098 51.5298L98.2061 50.4702ZM92.0098 43.2657L87.5098 50.4702L89.2061 51.5298L93.7061 44.3252L92.0098 43.2657ZM88.358 50H86.017V52H88.358V50ZM86.8611 51.5363L92.4065 42.809L90.7185 41.7364L85.173 50.4637L86.8611 51.5363ZM92.4065 41.7364L86.8611 33.0091L85.173 34.0818L90.7185 42.809L92.4065 41.7364ZM86.017 34.5455H88.358V32.5455H86.017V34.5455ZM110.827 33.5455H111.827V32.5455H110.827V33.5455ZM110.827 35.3068V36.3068H111.827V35.3068H110.827ZM102.497 35.3068H101.497V36.3068H102.497V35.3068ZM102.497 33.5455V32.5455H101.497V33.5455H102.497ZM105.099 29.3636V28.3636H104.099V29.3636H105.099ZM107.134 29.3636H108.134V28.3636H107.134V29.3636ZM107.509 48.1591L106.651 48.6736L106.655 48.6805L107.509 48.1591ZM108.486 49.0341L108.088 49.9514L108.095 49.9546L108.102 49.9577L108.486 49.0341ZM110.452 49.2386L110.61 50.2261L110.629 50.223L110.648 50.2192L110.452 49.2386ZM110.952 49.125L111.925 48.8953L111.689 47.8968L110.697 48.1579L110.952 49.125ZM111.384 50.9545L111.743 51.8879L112.557 51.5745L112.357 50.7248L111.384 50.9545ZM110.656 51.1591L110.45 50.1805L110.438 50.1831L110.426 50.186L110.656 51.1591ZM107.44 50.7727L107.009 51.675L107.013 51.6769L107.44 50.7727ZM105.759 49.3182L106.585 48.7545L106.585 48.7545L105.759 49.3182ZM109.827 33.5455V35.3068H111.827V33.5455H109.827ZM110.827 34.3068H102.497V36.3068H110.827V34.3068ZM103.497 35.3068V33.5455H101.497V35.3068H103.497ZM102.497 34.5455H110.827V32.5455H102.497V34.5455ZM105.099 30.3636H107.134V28.3636H105.099V30.3636ZM106.134 29.3636V46.4432H108.134V29.3636H106.134ZM106.134 46.4432C106.134 47.268 106.273 48.0427 106.651 48.6736L108.366 47.6446C108.245 47.4421 108.134 47.0729 108.134 46.4432H106.134ZM106.655 48.6805C107.002 49.2477 107.479 49.6874 108.088 49.9514L108.884 48.1167C108.689 48.0323 108.515 47.8886 108.362 47.6376L106.655 48.6805ZM108.102 49.9577C108.631 50.1771 109.19 50.2841 109.77 50.2841V48.2841C109.441 48.2841 109.144 48.2244 108.869 48.1105L108.102 49.9577ZM109.77 50.2841C110.07 50.2841 110.353 50.2672 110.61 50.2261L110.294 48.2512C110.172 48.2707 110.001 48.2841 109.77 48.2841V50.2841ZM110.648 50.2192C110.851 50.1785 111.038 50.1363 111.206 50.0921L110.697 48.1579C110.577 48.1895 110.431 48.223 110.256 48.2581L110.648 50.2192ZM109.978 49.3547L110.41 51.1843L112.357 50.7248L111.925 48.8953L109.978 49.3547ZM111.025 50.0212C110.892 50.072 110.705 50.127 110.45 50.1805L110.862 52.1376C111.184 52.07 111.481 51.9886 111.743 51.8879L111.025 50.0212ZM110.426 50.186C110.238 50.2304 109.965 50.2614 109.588 50.2614V52.2614C110.059 52.2614 110.499 52.2241 110.887 52.1322L110.426 50.186ZM109.588 50.2614C108.997 50.2614 108.427 50.133 107.868 49.8686L107.013 51.6769C107.832 52.064 108.694 52.2614 109.588 52.2614V50.2614ZM107.871 49.8704C107.354 49.6232 106.928 49.2576 106.585 48.7545L104.933 49.8818C105.468 50.6667 106.163 51.2707 107.009 51.675L107.871 49.8704ZM106.585 48.7545C106.282 48.3108 106.099 47.7195 106.099 46.9205H104.099C104.099 48.0305 104.357 49.0377 104.933 49.8818L106.585 48.7545ZM106.099 46.9205V29.3636H104.099V46.9205H106.099ZM124.841 51H123.841V52H124.841V51ZM124.841 27.7273V26.7273H123.841V27.7273H124.841ZM136.489 28.6818L135.99 29.5486L135.997 29.5526L136.489 28.6818ZM139 31.25L138.112 31.7096L138.114 31.7145L139 31.25ZM139.011 38.5795L139.899 39.0391L139.901 39.0366L139.011 38.5795ZM136.511 41.1591L137.006 42.0284L137.01 42.0259L136.511 41.1591ZM126.477 42.1023H125.477V43.1023H126.477V42.1023ZM126.477 40.1932V39.1932H125.477V40.1932H126.477ZM135.364 39.5114L135.856 40.3816L135.862 40.3781L135.364 39.5114ZM137.159 37.625L136.266 37.1744L136.263 37.1812L137.159 37.625ZM137.159 32.1932L136.263 32.637L136.266 32.6438L137.159 32.1932ZM135.352 30.3182L134.86 31.1884L134.863 31.1904L135.352 30.3182ZM126.966 29.6364V28.6364H125.966V29.6364H126.966ZM126.966 51V52H127.966V51H126.966ZM125.841 51V27.7273H123.841V51H125.841ZM124.841 28.7273H132.352V26.7273H124.841V28.7273ZM132.352 28.7273C133.879 28.7273 135.074 29.0216 135.99 29.5486L136.987 27.815C135.691 27.0693 134.129 26.7273 132.352 26.7273V28.7273ZM135.997 29.5526C136.95 30.0907 137.645 30.8076 138.112 31.7096L139.888 30.7904C139.234 29.5258 138.255 28.5305 136.98 27.811L135.997 29.5526ZM138.114 31.7145C138.6 32.6395 138.852 33.697 138.852 34.9091H140.852C140.852 33.4091 140.537 32.0272 139.886 30.7855L138.114 31.7145ZM138.852 34.9091C138.852 36.1232 138.602 37.1874 138.122 38.1225L139.901 39.0366C140.541 37.7899 140.852 36.4071 140.852 34.9091H138.852ZM138.123 38.12C137.655 39.025 136.961 39.7469 136.013 40.2923L137.01 42.0259C138.274 41.2985 139.247 40.3008 139.899 39.0391L138.123 38.12ZM136.017 40.2898C135.1 40.8114 133.906 41.1023 132.386 41.1023V43.1023C134.154 43.1023 135.711 42.7643 137.006 42.0284L136.017 40.2898ZM132.386 41.1023H126.477V43.1023H132.386V41.1023ZM127.477 42.1023V40.1932H125.477V42.1023H127.477ZM126.477 41.1932H132.33V39.1932H126.477V41.1932ZM132.33 41.1932C133.668 41.1932 134.862 40.9443 135.856 40.3816L134.871 38.6411C134.259 38.9875 133.43 39.1932 132.33 39.1932V41.1932ZM135.862 40.3781C136.829 39.8219 137.57 39.0494 138.055 38.0688L136.263 37.1812C135.961 37.7915 135.504 38.2766 134.865 38.6446L135.862 40.3781ZM138.052 38.0756C138.533 37.1221 138.761 36.0588 138.761 34.9091H136.761C136.761 35.7896 136.588 36.537 136.266 37.1744L138.052 38.0756ZM138.761 34.9091C138.761 33.7593 138.533 32.6961 138.052 31.7426L136.266 32.6438C136.588 33.2812 136.761 34.0285 136.761 34.9091H138.761ZM138.055 31.7494C137.568 30.7646 136.819 29.9941 135.841 29.446L134.863 31.1904C135.507 31.5513 135.963 32.0309 136.263 32.637L138.055 31.7494ZM135.845 29.4479C134.849 28.8843 133.647 28.6364 132.295 28.6364V30.6364C133.414 30.6364 134.249 30.8429 134.86 31.1884L135.845 29.4479ZM132.295 28.6364H126.966V30.6364H132.295V28.6364ZM125.966 29.6364V51H127.966V29.6364H125.966ZM126.966 50H124.841V52H126.966V50ZM146.409 50.7841L145.978 51.6862L145.984 51.6893L146.409 50.7841ZM144.33 48.9886L143.493 49.5359L143.495 49.5396L144.33 48.9886ZM144.045 43.9432L143.17 43.4604L143.17 43.4604L144.045 43.9432ZM147.557 41.5909L147.816 42.5567L147.816 42.5567L147.557 41.5909ZM150.261 41.0795L150.384 42.0721L150.384 42.0719L150.261 41.0795ZM152.739 40.7614L152.606 39.7701L152.605 39.7703L152.739 40.7614ZM154.295 40.3295L153.811 39.4545L153.811 39.4545L154.295 40.3295ZM153.761 36.1591L153.062 36.8739L153.07 36.8814L153.761 36.1591ZM147.636 35.9545L147.066 35.1335L147.062 35.1361L147.636 35.9545ZM145.977 37.9091L145.638 38.8497L146.528 39.1711L146.898 38.2996L145.977 37.9091ZM144.057 37.2159L143.132 36.8344L142.733 37.8014L143.717 38.1565L144.057 37.2159ZM145.693 34.9318L146.325 35.7069L146.33 35.7028L145.693 34.9318ZM148.034 33.6932L148.312 34.6538L148.32 34.6515L148.034 33.6932ZM152.739 33.5682L152.503 34.5401L152.506 34.5407L152.739 33.5682ZM154.761 34.4773L154.191 35.2984L154.197 35.3031L154.761 34.4773ZM156.273 36.2614L155.38 36.7121L155.382 36.7157L156.273 36.2614ZM156.852 51V52H157.852V51H156.852ZM154.83 51H153.83V52H154.83V51ZM154.83 48.2386H155.83V47.2386H154.83V48.2386ZM154.705 48.2386V47.2386H154.07L153.8 47.8128L154.705 48.2386ZM153.625 49.7386L154.338 50.4402L154.338 50.4402L153.625 49.7386ZM151.83 50.9318L152.226 51.85L152.226 51.85L151.83 50.9318ZM152.364 48.8295L152.882 49.6849L152.882 49.6849L152.364 48.8295ZM154.182 46.9318L153.303 46.4547L153.301 46.4577L154.182 46.9318ZM154.83 41.7841H155.83V39.4548L154.141 41.0591L154.83 41.7841ZM154.068 42.1705L153.764 41.2178L153.758 41.2197L154.068 42.1705ZM152.852 42.4773L153.033 43.461L153.045 43.4585L152.852 42.4773ZM151.489 42.6932L151.621 43.6844L151.621 43.6844L151.489 42.6932ZM150.261 42.8523L150.384 43.8448L150.385 43.8446L150.261 42.8523ZM147.739 43.4205L148.085 44.3584L148.085 44.3584L147.739 43.4205ZM146.136 44.4886L146.906 45.1276L146.911 45.1212L146.136 44.4886ZM146.716 48.6818L146.106 49.4742L146.111 49.478L146.716 48.6818ZM149.295 50.3977C148.375 50.3977 147.56 50.2199 146.834 49.8789L145.984 51.6893C147 52.1665 148.109 52.3977 149.295 52.3977V50.3977ZM146.841 49.882C146.127 49.5409 145.576 49.0614 145.164 48.4377L143.495 49.5396C144.114 50.4765 144.948 51.1939 145.978 51.6862L146.841 49.882ZM145.167 48.4414C144.777 47.8451 144.557 47.0895 144.557 46.125H142.557C142.557 47.4029 142.852 48.5564 143.493 49.5359L145.167 48.4414ZM144.557 46.125C144.557 45.384 144.697 44.8333 144.921 44.426L143.17 43.4604C142.743 44.2349 142.557 45.1387 142.557 46.125H144.557ZM144.921 44.426C145.162 43.99 145.503 43.627 145.967 43.3336L144.897 41.6437C144.164 42.1079 143.581 42.7146 143.17 43.4604L144.921 44.426ZM145.967 43.3336C146.465 43.0181 147.077 42.7552 147.816 42.5567L147.297 40.6251C146.4 40.866 145.595 41.2016 144.897 41.6437L145.967 43.3336ZM147.816 42.5567C148.582 42.3509 149.437 42.1885 150.384 42.0721L150.139 40.087C149.116 40.213 148.168 40.3915 147.297 40.6251L147.816 42.5567ZM150.384 42.0719C151.364 41.9505 152.193 41.8439 152.872 41.7524L152.605 39.7703C151.935 39.8606 151.113 39.9662 150.138 40.0871L150.384 42.0719ZM152.871 41.7526C153.603 41.655 154.264 41.4895 154.78 41.2046L153.811 39.4545C153.614 39.5635 153.238 39.6859 152.606 39.7701L152.871 41.7526ZM154.78 41.2046C155.101 41.0267 155.378 40.7716 155.569 40.4315C155.757 40.0954 155.83 39.7307 155.83 39.375H153.83C153.83 39.4176 153.825 39.4422 153.823 39.4531C153.82 39.4631 153.819 39.462 153.823 39.4549C153.828 39.4475 153.832 39.4417 153.835 39.4393C153.837 39.4375 153.831 39.4436 153.811 39.4545L154.78 41.2046ZM155.83 39.375V38.9659H153.83V39.375H155.83ZM155.83 38.9659C155.83 37.5643 155.402 36.3454 154.453 35.4368L153.07 36.8814C153.545 37.3364 153.83 37.9887 153.83 38.9659H155.83ZM154.461 35.4443C153.512 34.5162 152.211 34.125 150.716 34.125V36.125C151.873 36.125 152.601 36.4232 153.062 36.8738L154.461 35.4443ZM150.716 34.125C149.315 34.125 148.072 34.4337 147.066 35.1335L148.207 36.7756C148.792 36.3694 149.602 36.125 150.716 36.125V34.125ZM147.062 35.1361C146.149 35.7768 145.46 36.5672 145.057 37.5185L146.898 38.2996C147.131 37.751 147.548 37.2384 148.211 36.773L147.062 35.1361ZM146.317 36.9685L144.396 36.2753L143.717 38.1565L145.638 38.8497L146.317 36.9685ZM144.981 37.5974C145.321 36.7733 145.775 36.1555 146.325 35.7069L145.061 34.1567C144.218 34.8445 143.58 35.7494 143.132 36.8344L144.981 37.5974ZM146.33 35.7028C146.922 35.2136 147.581 34.8655 148.312 34.6537L147.756 32.7326C146.76 33.0208 145.858 33.4985 145.056 34.1609L146.33 35.7028ZM148.32 34.6515C149.092 34.4211 149.871 34.3068 150.659 34.3068V32.3068C149.674 32.3068 148.703 32.4501 147.748 32.7349L148.32 34.6515ZM150.659 34.3068C151.238 34.3068 151.852 34.3825 152.503 34.5401L152.974 32.5963C152.186 32.4054 151.413 32.3068 150.659 32.3068V34.3068ZM152.506 34.5407C153.11 34.6856 153.67 34.9368 154.191 35.2984L155.332 33.6562C154.61 33.1542 153.821 32.7993 152.972 32.5957L152.506 34.5407ZM154.197 35.3031C154.661 35.6195 155.059 36.0764 155.38 36.7121L157.165 35.8106C156.714 34.916 156.104 34.1836 155.325 33.6515L154.197 35.3031ZM155.382 36.7157C155.675 37.2902 155.852 38.0833 155.852 39.1477H157.852C157.852 37.8788 157.643 36.7477 157.164 35.807L155.382 36.7157ZM155.852 39.1477V51H157.852V39.1477H155.852ZM156.852 50H154.83V52H156.852V50ZM155.83 51V48.2386H153.83V51H155.83ZM154.83 47.2386H154.705V49.2386H154.83V47.2386ZM153.8 47.8128C153.614 48.2082 153.325 48.6174 152.912 49.0371L154.338 50.4402C154.879 49.8901 155.311 49.2994 155.609 48.6644L153.8 47.8128ZM152.912 49.0371C152.538 49.4171 152.052 49.7465 151.433 50.0137L152.226 51.85C153.046 51.4959 153.757 51.0298 154.338 50.4402L152.912 49.0371ZM151.433 50.0137C150.865 50.2591 150.16 50.3977 149.295 50.3977V52.3977C150.37 52.3977 151.355 52.2258 152.226 51.85L151.433 50.0137ZM149.568 50.5455C150.796 50.5455 151.913 50.2717 152.882 49.6849L151.846 47.9742C151.238 48.342 150.492 48.5455 149.568 48.5455V50.5455ZM152.882 49.6849C153.818 49.118 154.551 48.3557 155.062 47.4059L153.301 46.4577C152.964 47.0837 152.485 47.5866 151.846 47.9742L152.882 49.6849ZM155.061 47.4089C155.576 46.4589 155.83 45.4186 155.83 44.3068H153.83C153.83 45.1041 153.651 45.8138 153.303 46.4547L155.061 47.4089ZM155.83 44.3068V41.7841H153.83V44.3068H155.83ZM154.141 41.0591C154.155 41.0452 154.142 41.0616 154.073 41.0969C154.006 41.1309 153.906 41.1725 153.764 41.2178L154.372 43.1231C154.776 42.9943 155.202 42.8093 155.518 42.5091L154.141 41.0591ZM153.758 41.2197C153.457 41.3179 153.092 41.4109 152.659 41.4961L153.045 43.4585C153.536 43.3618 153.982 43.2503 154.378 43.1212L153.758 41.2197ZM152.672 41.4937C152.233 41.5741 151.795 41.6435 151.356 41.702L151.621 43.6844C152.092 43.6216 152.562 43.5471 153.033 43.4609L152.672 41.4937ZM151.356 41.702C150.904 41.7623 150.498 41.815 150.137 41.86L150.385 43.8446C150.752 43.7987 151.164 43.7453 151.621 43.6844L151.356 41.702ZM150.139 41.8598C149.102 41.9875 148.181 42.1909 147.392 42.4825L148.085 44.3584C148.69 44.1349 149.452 43.9595 150.384 43.8448L150.139 41.8598ZM147.392 42.4825C146.572 42.7857 145.872 43.2312 145.362 43.8561L146.911 45.1212C147.143 44.837 147.512 44.5704 148.085 44.3584L147.392 42.4825ZM145.367 43.8497C144.817 44.5122 144.58 45.3295 144.58 46.2159H146.58C146.58 45.6932 146.713 45.359 146.906 45.1275L145.367 43.8497ZM144.58 46.2159C144.58 47.548 145.073 48.679 146.106 49.4741L147.326 47.8895C146.844 47.518 146.58 47.0051 146.58 46.2159H144.58ZM146.111 49.478C147.075 50.2111 148.251 50.5455 149.568 50.5455V48.5455C148.597 48.5455 147.872 48.3041 147.321 47.8857L146.111 49.478ZM165.767 57.4432L166.095 56.4986L166.088 56.4961L165.767 57.4432ZM163.506 56.1932L164.16 55.4366L164.16 55.4366L163.506 56.1932ZM162.074 54.4091L161.524 53.5735L160.772 54.0684L161.186 54.8685L162.074 54.4091ZM163.733 53.3182L164.602 52.8237L164.075 51.8967L163.184 52.4826L163.733 53.3182ZM164.733 54.6136L164.019 55.3144L164.026 55.3207L164.733 54.6136ZM166.381 55.6705L165.997 56.5938L166 56.5953L166.381 55.6705ZM172.631 54.9318L172.001 54.1546L171.998 54.157L172.631 54.9318ZM174.062 47.3977H175.062V46.3977H174.062V47.3977ZM173.881 47.3977V46.3977H173.23L172.966 46.9928L173.881 47.3977ZM172.869 48.9886L173.635 49.6321L173.639 49.6267L172.869 48.9886ZM171.142 50.2955L170.702 49.3972L170.699 49.3991L171.142 50.2955ZM164.801 49.7841L164.262 50.626L164.264 50.6278L164.801 49.7841ZM162.256 46.8295L161.353 47.2597L161.356 47.2661L162.256 46.8295ZM162.233 37.5682L161.322 37.1563L161.32 37.1606L162.233 37.5682ZM171.21 33.875L170.737 34.7558L170.744 34.7597L171.21 33.875ZM172.903 35.2614L172.11 35.87L172.115 35.8768L172.903 35.2614ZM173.915 36.875L173.008 37.2957L173.276 37.875H173.915V36.875ZM174.119 36.875V37.875H175.119V36.875H174.119ZM174.119 33.5455V32.5455H173.119V33.5455H174.119ZM176.097 33.5455H177.097V32.5455H176.097V33.5455ZM175.153 55.1023L175.989 55.6524L175.989 55.6524L175.153 55.1023ZM172.585 57.2159L172.198 56.2938L172.193 56.2961L172.585 57.2159ZM171.631 48.1591L172.191 48.9875L172.196 48.9838L171.631 48.1591ZM173.46 45.8182L174.383 46.2038L174.383 46.2038L173.46 45.8182ZM173.472 38.5682L172.541 38.9338L172.542 38.9361L173.472 38.5682ZM171.653 36.0682L171.039 36.8572L171.047 36.8636L171.653 36.0682ZM165.801 36.0909L166.418 36.8783L166.418 36.8783L165.801 36.0909ZM163.983 38.6364L164.916 38.9962L164.917 38.994L163.983 38.6364ZM163.994 45.7273L163.068 46.1046L163.069 46.107L163.994 45.7273ZM165.824 48.1136L165.241 48.9263L165.246 48.93L165.824 48.1136ZM168.892 56.9091C167.787 56.9091 166.861 56.7645 166.095 56.4986L165.439 58.3878C166.461 58.7431 167.618 58.9091 168.892 58.9091V56.9091ZM166.088 56.4961C165.297 56.2278 164.661 55.8699 164.16 55.4366L162.852 56.9498C163.578 57.5771 164.45 58.0525 165.446 58.3902L166.088 56.4961ZM164.16 55.4366C163.633 54.9817 163.239 54.4856 162.962 53.9497L161.186 54.8685C161.59 55.6508 162.151 56.344 162.852 56.9498L164.16 55.4366ZM162.623 55.2446L164.282 54.1537L163.184 52.4826L161.524 53.5735L162.623 55.2446ZM162.864 53.8127C163.163 54.3391 163.553 54.8389 164.02 55.3143L165.446 53.9129C165.08 53.5399 164.803 53.176 164.602 52.8237L162.864 53.8127ZM164.026 55.3207C164.56 55.8553 165.227 56.2739 165.997 56.5938L166.765 54.7471C166.186 54.5064 165.754 54.2205 165.44 53.9065L164.026 55.3207ZM166 56.5953C166.837 56.9392 167.812 57.0909 168.892 57.0909V55.0909C167.988 55.0909 167.288 54.9623 166.761 54.7456L166 56.5953ZM168.892 57.0909C170.606 57.0909 172.095 56.66 173.263 55.7066L171.998 54.157C171.273 54.7491 170.269 55.0909 168.892 55.0909V57.0909ZM173.26 55.7091C174.52 54.6888 175.062 53.1546 175.062 51.3295H173.062C173.062 52.7621 172.65 53.6294 172.001 54.1546L173.26 55.7091ZM175.062 51.3295V47.3977H173.062V51.3295H175.062ZM174.062 46.3977H173.881V48.3977H174.062V46.3977ZM172.966 46.9928C172.775 47.4252 172.491 47.8782 172.099 48.3506L173.639 49.6267C174.127 49.0385 174.517 48.4309 174.795 47.8027L172.966 46.9928ZM172.104 48.3452C171.767 48.7454 171.309 49.1002 170.702 49.3972L171.582 51.1937C172.399 50.7937 173.092 50.2773 173.635 49.6321L172.104 48.3452ZM170.699 49.3991C170.17 49.6607 169.457 49.8182 168.517 49.8182V51.8182C169.668 51.8182 170.705 51.6271 171.585 51.1918L170.699 49.3991ZM168.517 49.8182C167.296 49.8182 166.247 49.519 165.338 48.9404L164.264 50.6278C165.522 51.428 166.95 51.8182 168.517 51.8182V49.8182ZM165.341 48.9421C164.437 48.3632 163.706 47.527 163.155 46.393L161.356 47.2661C162.048 48.6927 163.014 49.8262 164.262 50.626L165.341 48.9421ZM163.158 46.3994C162.623 45.2749 162.335 43.8947 162.335 42.2273H160.335C160.335 44.1205 160.661 45.8084 161.353 47.2597L163.158 46.3994ZM162.335 42.2273C162.335 40.5747 162.615 39.1652 163.146 37.9758L161.32 37.1606C160.654 38.653 160.335 40.3495 160.335 42.2273H162.335ZM163.144 37.98C163.685 36.7846 164.419 35.8891 165.336 35.254L164.198 33.6096C162.948 34.4746 161.994 35.67 161.322 37.1563L163.144 37.98ZM165.336 35.254C166.237 34.6305 167.295 34.3068 168.551 34.3068V32.3068C166.928 32.3068 165.464 32.7331 164.198 33.6096L165.336 35.254ZM168.551 34.3068C169.507 34.3068 170.218 34.4771 170.737 34.7558L171.684 32.9942C170.793 32.5153 169.731 32.3068 168.551 32.3068V34.3068ZM170.744 34.7597C171.339 35.0732 171.785 35.4468 172.11 35.87L173.697 34.6527C173.173 33.9698 172.49 33.4192 171.676 32.9903L170.744 34.7597ZM172.115 35.8768C172.51 36.3822 172.803 36.8553 173.008 37.2957L174.822 36.4543C174.541 35.8493 174.161 35.2466 173.692 34.6459L172.115 35.8768ZM173.915 37.875H174.119V35.875H173.915V37.875ZM175.119 36.875V33.5455H173.119V36.875H175.119ZM174.119 34.5455H176.097V32.5455H174.119V34.5455ZM175.097 33.5455V51.4545H177.097V33.5455H175.097ZM175.097 51.4545C175.097 52.7928 174.812 53.8025 174.318 54.5522L175.989 55.6524C176.752 54.4929 177.097 53.0708 177.097 51.4545H175.097ZM174.318 54.5522C173.802 55.3362 173.104 55.9138 172.198 56.2938L172.972 58.138C174.233 57.609 175.247 56.7775 175.989 55.6524L174.318 54.5522ZM172.193 56.2961C171.253 56.6971 170.159 56.9091 168.892 56.9091V58.9091C170.383 58.9091 171.751 58.659 172.978 58.1357L172.193 56.2961ZM168.756 49.9659C170.042 49.9659 171.204 49.655 172.191 48.9875L171.071 47.3307C170.467 47.739 169.712 47.9659 168.756 47.9659V49.9659ZM172.196 48.9838C173.172 48.3147 173.895 47.371 174.383 46.2038L172.538 45.4326C172.177 46.2957 171.68 46.9126 171.065 47.3344L172.196 48.9838ZM174.383 46.2038C174.87 45.038 175.097 43.6923 175.097 42.1932H173.097C173.097 43.4971 172.899 44.5681 172.538 45.4326L174.383 46.2038ZM175.097 42.1932C175.097 40.7287 174.873 39.3917 174.401 38.2003L172.542 38.9361C172.904 39.8508 173.097 40.9304 173.097 42.1932H175.097ZM174.402 38.2025C173.928 36.9959 173.22 36.0045 172.259 35.2727L171.047 36.8636C171.678 37.344 172.182 38.0192 172.541 38.9338L174.402 38.2025ZM172.268 35.2792C171.279 34.5093 170.088 34.1477 168.756 34.1477V36.1477C169.711 36.1477 170.452 36.3998 171.039 36.8571L172.268 35.2792ZM168.756 34.1477C167.399 34.1477 166.188 34.5175 165.185 35.3036L166.418 36.8783C167.02 36.4067 167.779 36.1477 168.756 36.1477V34.1477ZM165.185 35.3036C164.222 36.0573 163.515 37.0623 163.049 38.2787L164.917 38.994C165.269 38.0741 165.774 37.3821 166.418 36.8783L165.185 35.3036ZM163.05 38.2765C162.59 39.468 162.369 40.7781 162.369 42.1932H164.369C164.369 40.9871 164.557 39.9259 164.916 38.9962L163.05 38.2765ZM162.369 42.1932C162.369 43.6297 162.594 44.94 163.068 46.1046L164.92 45.35C164.562 44.4691 164.369 43.4233 164.369 42.1932H162.369ZM163.069 46.107C163.549 47.2759 164.269 48.2294 165.241 48.9263L166.407 47.3009C165.773 46.8464 165.273 46.2089 164.919 45.3476L163.069 46.107ZM165.246 48.93C166.246 49.637 167.434 49.9659 168.756 49.9659V47.9659C167.775 47.9659 167.008 47.7266 166.401 47.2973L165.246 48.93ZM184.281 50.2273L183.74 51.0683L183.744 51.0707L184.281 50.2273ZM181.52 47.0568L180.617 47.4858L180.619 47.4918L181.52 47.0568ZM181.52 37.6932L180.617 37.264L180.616 37.2662L181.52 37.6932ZM184.213 34.4773L184.773 35.3059L184.774 35.3051L184.213 34.4773ZM190.94 33.8295L190.572 34.7591L190.579 34.7619L190.94 33.8295ZM193.304 35.4091L192.589 36.1086L192.597 36.1162L193.304 35.4091ZM194.974 38.0795L194.04 38.435L194.041 38.4372L194.974 38.0795ZM195.588 42.875V43.875H196.588V42.875H195.588ZM181.952 42.875H180.952V43.875H181.952V42.875ZM181.952 41.0909V40.0909H180.952V41.0909H181.952ZM193.52 41.0909V42.0909H194.52V41.0909H193.52ZM192.838 38.0682L191.942 38.5124L191.947 38.5214L192.838 38.0682ZM190.963 35.9318L190.414 36.7675L190.418 36.7699L190.963 35.9318ZM185.281 36.0341L184.706 35.2159L184.706 35.2159L185.281 36.0341ZM183.304 38.375L182.407 37.9334L182.404 37.9391L183.304 38.375ZM182.588 41.5568L181.588 41.5502V41.5568H182.588ZM183.304 46.2614L182.395 46.6792L182.399 46.6872L183.304 46.2614ZM185.361 48.6591L185.9 47.8172L185.9 47.8172L185.361 48.6591ZM190.679 49.125L190.3 48.1996L190.296 48.2013L190.679 49.125ZM192.259 48.0909L191.545 47.39L191.545 47.3901L192.259 48.0909ZM193.236 46.6477L193.545 45.6968L192.67 45.4121L192.314 46.2603L193.236 46.6477ZM195.156 47.2727L196.097 47.6121L196.447 46.6412L195.466 46.3218L195.156 47.2727ZM193.849 49.3068L193.134 48.6085L193.129 48.613L193.849 49.3068ZM191.599 50.8068L191.983 51.7304L191.987 51.7287L191.599 50.8068ZM188.509 50.3636C187.04 50.3636 185.824 50.0241 184.818 49.3838L183.744 51.0707C185.118 51.9456 186.72 52.3636 188.509 52.3636V50.3636ZM184.822 49.3863C183.797 48.7267 182.997 47.8146 182.42 46.6218L180.619 47.4918C181.346 48.996 182.387 50.1975 183.74 51.0683L184.822 49.3863ZM182.423 46.6279C181.853 45.4274 181.554 44.0177 181.554 42.375H179.554C179.554 44.2626 179.899 45.9741 180.617 47.4858L182.423 46.6279ZM181.554 42.375C181.554 40.7408 181.853 39.3299 182.424 38.1202L180.616 37.2662C179.899 38.7837 179.554 40.4941 179.554 42.375H181.554ZM182.423 38.1223C183.006 36.896 183.792 35.9688 184.773 35.3059L183.653 33.6486C182.347 34.5312 181.337 35.7479 180.617 37.264L182.423 38.1223ZM184.774 35.3051C185.746 34.6465 186.877 34.3068 188.202 34.3068V32.3068C186.512 32.3068 184.983 32.7475 183.652 33.6494L184.774 35.3051ZM188.202 34.3068C189.023 34.3068 189.81 34.4572 190.572 34.7591L191.309 32.9C190.313 32.5049 189.275 32.3068 188.202 32.3068V34.3068ZM190.579 34.7619C191.317 35.0483 191.986 35.4924 192.589 36.1086L194.019 34.7096C193.228 33.9016 192.321 33.2926 191.302 32.8972L190.579 34.7619ZM192.597 36.1162C193.187 36.7066 193.673 37.4709 194.04 38.435L195.909 37.7241C195.458 36.5367 194.83 35.5207 194.011 34.702L192.597 36.1162ZM194.041 38.4372C194.396 39.3644 194.588 40.5026 194.588 41.875H196.588C196.588 40.3231 196.371 38.9311 195.908 37.7219L194.041 38.4372ZM194.588 41.875V42.875H196.588V41.875H194.588ZM195.588 41.875H181.952V43.875H195.588V41.875ZM182.952 42.875V41.0909H180.952V42.875H182.952ZM181.952 42.0909H193.52V40.0909H181.952V42.0909ZM194.52 41.0909C194.52 39.831 194.263 38.6652 193.729 37.6149L191.947 38.5214C192.322 39.2591 192.52 40.1084 192.52 41.0909H194.52ZM193.734 37.624C193.212 36.5706 192.469 35.719 191.509 35.0937L190.418 36.7699C191.063 37.1901 191.57 37.7628 191.942 38.5124L193.734 37.624ZM191.512 35.0961C190.538 34.4557 189.422 34.1477 188.202 34.1477V36.1477C189.072 36.1477 189.797 36.3624 190.414 36.7675L191.512 35.0961ZM188.202 34.1477C186.906 34.1477 185.729 34.4975 184.706 35.2159L185.856 36.8523C186.516 36.3888 187.285 36.1477 188.202 36.1477V34.1477ZM184.706 35.2159C183.721 35.9083 182.954 36.8212 182.407 37.9334L184.201 38.8166C184.608 37.9894 185.16 37.3417 185.856 36.8523L184.706 35.2159ZM182.404 37.9391C181.865 39.0517 181.597 40.2604 181.588 41.5502L183.588 41.5634C183.595 40.5502 183.804 39.6376 184.204 38.8109L182.404 37.9391ZM181.588 41.5568V42.625H183.588V41.5568H181.588ZM181.588 42.625C181.588 44.1254 181.846 45.4853 182.395 46.6792L184.213 45.8436C183.807 44.9617 183.588 43.8973 183.588 42.625H181.588ZM182.399 46.6872C182.957 47.8733 183.763 48.8229 184.821 49.501L185.9 47.8172C185.185 47.3589 184.62 46.71 184.209 45.8356L182.399 46.6872ZM184.821 49.501C185.892 50.1873 187.135 50.5114 188.509 50.5114V48.5114C187.458 48.5114 186.603 48.2672 185.9 47.8172L184.821 49.501ZM188.509 50.5114C189.437 50.5114 190.295 50.3667 191.062 50.0487L190.296 48.2013C189.82 48.3984 189.232 48.5114 188.509 48.5114V50.5114ZM191.058 50.0504C191.797 49.7477 192.442 49.3315 192.972 48.7917L191.545 47.3901C191.227 47.714 190.819 47.9872 190.3 48.1996L191.058 50.0504ZM192.972 48.7918C193.485 48.27 193.885 47.6844 194.158 47.0352L192.314 46.2603C192.147 46.6565 191.896 47.0331 191.545 47.39L192.972 48.7918ZM192.926 47.5986L194.847 48.2236L195.466 46.3218L193.545 45.6968L192.926 47.5986ZM194.216 46.9333C194.004 47.5196 193.651 48.0781 193.134 48.6085L194.565 50.0051C195.26 49.2931 195.778 48.4955 196.097 47.6121L194.216 46.9333ZM193.129 48.613C192.637 49.1241 192.005 49.5517 191.212 49.8849L191.987 51.7287C192.997 51.3043 193.865 50.7319 194.57 50.0006L193.129 48.613ZM191.216 49.8833C190.466 50.1948 189.57 50.3636 188.509 50.3636V52.3636C189.78 52.3636 190.945 52.1613 191.983 51.7304L191.216 49.8833Z" fill="#3D363E" mask="url(#path-2-outside-1_2_37)"/>
</svg>
